<?xml version="1.0" encoding="utf-8"?>
<svg xmlns="http://www.w3.org/2000/svg" xmlns:xlink="http://www.w3.org/1999/xlink" style="margin: auto; ; display: block; shape-rendering: auto;" width="200px" height="200px" viewBox="0 0 100 100" preserveAspectRatio="xMidYMid">
<g transform="translate(50 50)">
<g>
<animateTransform attributeName="transform" type="rotate" values="0;40" keyTimes="0;1" dur="0.2s" repeatCount="indefinite"></animateTransform><path d="M32.61901286060018 -5 L42.61901286060018 -5 L42.61901286060018 5 L32.61901286060018 5 A33 33 0 0 1 28.201551590321948 17.136875091404782 L28.201551590321948 17.136875091404782 L35.86199602151173 23.564751188270176 L29.434119924646332 31.22519561945996 L21.77367549345655 24.797319522594567 A33 33 0 0 1 10.588270905598433 31.255215872389325 L10.588270905598433 31.255215872389325 L12.324752682267738 41.103293402511405 L2.4766751521456487 42.83977517918072 L0.7401933754763443 32.991697649058636 A33 33 0 0 1 -11.979379411377893 30.74889378365107 L-11.979379411377893 30.74889378365107 L-16.97937941137789 39.40914782149546 L-25.639633449222277 34.409147821495466 L-20.639633449222277 25.748893783651077 A33 33 0 0 1 -28.94174496579829 15.854822557653849 L-28.94174496579829 15.854822557653849 L-38.338671173657374 19.275023990910537 L-41.75887260691406 9.87809778305146 L-32.36194639905498 6.457896349794772 A33 33 0 0 1 -32.36194639905498 -6.457896349794765 L-32.36194639905498 -6.457896349794765 L-41.75887260691407 -9.878097783051452 L-38.338671173657374 -19.27502399091053 L-28.941744965798293 -15.854822557653842 A33 33 0 0 1 -20.639633449222305 -25.748893783651056 L-20.639633449222305 -25.748893783651056 L-25.63963344922231 -34.40914782149544 L-16.979379411377906 -39.40914782149545 L-11.9793794113779 -30.748893783651067 A33 33 0 0 1 0.7401933754763217 -32.991697649058636 L0.7401933754763217 -32.991697649058636 L2.476675152145621 -42.83977517918072 L12.324752682267723 -41.10329340251141 L10.588270905598424 -31.25521587238933 A33 33 0 0 1 21.773675493456533 -24.79731952259458 L21.773675493456533 -24.79731952259458 L29.43411992464631 -31.225195619459978 L35.86199602151173 -23.564751188270183 L28.201551590321948 -17.136875091404786 A33 33 0 0 1 32.61901286060018 -5.0000000000000195 M0 -26A26 26 0 1 0 0 26 A26 26 0 1 0 0 -26" fill="#e15b64"></path></g></g>
<!-- [ldio] generated by https://loading.io/ --></svg>